<svg xmlns="http://www.w3.org/2000/svg" width="800" height="481" viewBox="0 0 800 481" role="img" aria-labelledby="ghcTitle ghcDesc">
<title id="ghcTitle">GitHub Statistics</title>
<desc id="ghcDesc">GitHub summary for jmrplens. Languages by bytes: Go 46%, Python 28%, C++ 26%. Most starred repositories: phonometry with 112 stars in Python, TFG-TFM_EPS with 84 stars in TeX, gitlab-mcp-server with 33 stars in Go. Contributions per day over the last 10 days, peaking at 20.</desc>
<style>
.bg{fill:#0d1117;stroke:#3d444d}
.panel{fill:#151b23}
.t,.v,.big{fill:#f0f6fc}
.d,.l,.h,.s{fill:#9198a1}
.n,.c{fill:#f0f6fc}
.star,.pill-v{fill:#4493f8}
.on-accent{fill:#0d1117}
.line{stroke:#4493f8}
.area{fill:#4493f8}
.axis,.edge{stroke:#3d444d}
.track{fill:#3d444d}
.ok{fill:#3fb950}
.fg{fill:#f0f6fc}
.h0{fill:#151b23}.h1{fill:#033a16}.h2{fill:#196c2e}.h3{fill:#2ea043}.h4{fill:#56d364}
text{font-family:-apple-system,BlinkMacSystemFont,'Segoe UI','Noto Sans',Helvetica,Arial,sans-serif}
.mono{font-family:ui-monospace,SFMono-Regular,'SF Mono',Menlo,Consolas,'Liberation Mono',monospace}
.t{font-size:15px;font-weight:600}
.d{font-size:11px}
.v{font-size:22px;font-weight:600;font-family:ui-monospace,SFMono-Regular,'SF Mono',Menlo,Consolas,'Liberation Mono',monospace}
.big{font-size:20px;font-weight:600;font-family:ui-monospace,SFMono-Regular,'SF Mono',Menlo,Consolas,'Liberation Mono',monospace}
.l{font-size:11px}
.h{font-size:14px;font-weight:600}
.n{font-size:13px}
.s{font-size:11px}
.c{font-size:13px;font-weight:500;font-family:ui-monospace,SFMono-Regular,'SF Mono',Menlo,Consolas,'Liberation Mono',monospace}
.line{fill:none;stroke-width:2;stroke-linecap:round;stroke-linejoin:round}
.area{opacity:0.12;stroke:none}
.axis{stroke-width:1}
.edge{fill:none;stroke-width:1}
</style>
<rect class="bg" x="0.5" y="0.5" width="799" height="480" rx="6"/>
<path class="panel" d="M0.5,50 V6.5 A6,6 0 0 1 6.5,0.5 H793.5 A6,6 0 0 1 799.5,6.5 V50 Z"/>
<line class="axis" x1="0.5" y1="50.5" x2="799.5" y2="50.5"/>
<rect class="edge" x="0.5" y="0.5" width="799" height="480" rx="6"/>
<text class="t" x="22" y="31" text-anchor="start">GitHub Statistics</text>
<text class="d mono" x="778" y="31" text-anchor="end">@jmrplens</text>
<text class="h fg" x="22" y="100" text-anchor="start">Most Used Languages</text>
<text class="d" x="22" y="117" text-anchor="start">Share of bytes across public repositories</text>
<rect x="22" y="134" width="345.78" height="14" rx="3" fill="#00add8"/>
<rect x="369.78" y="134" width="209.05" height="14" rx="3" fill="#3572a5"/>
<rect x="580.83" y="134" width="195.17" height="14" rx="3" fill="#f34b7d"/>
<circle cx="28" cy="170" r="6" fill="#00add8"/>
<text class="n" x="42" y="174" text-anchor="start">Go</text>
<text class="c" x="380" y="174" text-anchor="end">46%</text>
<circle cx="28" cy="195" r="6" fill="#3572a5"/>
<text class="n" x="42" y="199" text-anchor="start">Python</text>
<text class="c" x="380" y="199" text-anchor="end">28%</text>
<circle cx="406" cy="170" r="6" fill="#f34b7d"/>
<text class="n" x="420" y="174" text-anchor="start">C++</text>
<text class="c" x="758" y="174" text-anchor="end">26%</text>
<text class="h fg" x="22" y="241" text-anchor="start">Top repositories</text>
<text class="d" x="22" y="258" text-anchor="start">By stars</text>
<circle cx="27" cy="279" r="5" fill="#3572a5"/>
<text class="n" x="40" y="283" text-anchor="start">phonometry</text>
<text class="s" x="708" y="283" text-anchor="end">Python</text>
<path class="star" transform="translate(722 273) scale(0.7)" d="M8 .25a.75.75 0 0 1 .673.418l1.882 3.815 4.21.612a.75.75 0 0 1 .416 1.279l-3.046 2.97.719 4.192a.75.75 0 0 1-1.088.791L8 12.347l-3.766 1.98a.75.75 0 0 1-1.088-.79l.72-4.194L.818 6.374a.75.75 0 0 1 .416-1.28l4.21-.611L7.327.668A.75.75 0 0 1 8 .25Z"/>
<text class="c" x="778" y="283" text-anchor="end">112</text>
<circle cx="27" cy="303" r="5" fill="#3d6117"/>
<text class="n" x="40" y="307" text-anchor="start">TFG-TFM_EPS</text>
<text class="s" x="708" y="307" text-anchor="end">TeX</text>
<path class="star" transform="translate(722 297) scale(0.7)" d="M8 .25a.75.75 0 0 1 .673.418l1.882 3.815 4.21.612a.75.75 0 0 1 .416 1.279l-3.046 2.97.719 4.192a.75.75 0 0 1-1.088.791L8 12.347l-3.766 1.98a.75.75 0 0 1-1.088-.79l.72-4.194L.818 6.374a.75.75 0 0 1 .416-1.28l4.21-.611L7.327.668A.75.75 0 0 1 8 .25Z"/>
<text class="c" x="778" y="307" text-anchor="end">84</text>
<circle cx="27" cy="327" r="5" fill="#00add8"/>
<text class="n" x="40" y="331" text-anchor="start">gitlab-mcp-server</text>
<text class="s" x="708" y="331" text-anchor="end">Go</text>
<path class="star" transform="translate(722 321) scale(0.7)" d="M8 .25a.75.75 0 0 1 .673.418l1.882 3.815 4.21.612a.75.75 0 0 1 .416 1.279l-3.046 2.97.719 4.192a.75.75 0 0 1-1.088.791L8 12.347l-3.766 1.98a.75.75 0 0 1-1.088-.79l.72-4.194L.818 6.374a.75.75 0 0 1 .416-1.28l4.21-.611L7.327.668A.75.75 0 0 1 8 .25Z"/>
<text class="c" x="778" y="331" text-anchor="end">33</text>
<text class="h fg" x="22" y="373" text-anchor="start">Contributions per day</text>
<text class="d" x="22" y="390" text-anchor="start">Last 10 days</text>
<line class="axis" x1="22" y1="455" x2="778" y2="455"/>
<path class="area" d="M22,455 L22,455 L106,447.2 L190,423.8 L274,436.8 L358,455 L442,452.4 L526,403 L610,416 L694,444.6 L778,431.6 L778,455Z"/>
<polyline class="line" points="22,455 106,447.2 190,423.8 274,436.8 358,455 442,452.4 526,403 610,416 694,444.6 778,431.6"/>
</svg>
