<svg xmlns="http://www.w3.org/2000/svg" width="800" height="94" viewBox="0 0 800 94" role="img" aria-labelledby="ghcTitle ghcDesc">
<title id="ghcTitle">octocat</title>
<desc id="ghcDesc">GitHub summary for octocat: 614 stars, 80 forks, 1200 followers, 42 public repositories, 1663 contributions in the last year, 812 commits in the last year, 9695 repository views in the last 14 days. Most starred repositories: chronicle-cli with 240 stars in Go, pixel-garden with 156 stars in TypeScript, tide-tables with 97 stars in Python, hello-world with 80 stars in Go, dotfiles with 41 stars in Shell.</desc>
<style>
.bg{fill:#ffffff;stroke:#d0d7de}
.panel{fill:#f6f8fa}
.t,.v,.big{fill:#1f2328}
.d,.l,.h,.s{fill:#57606a}
.n,.c{fill:#24292f}
.star,.pill-v{fill:#9a6700}
.on-accent{fill:#ffffff}
.line{stroke:#0969da}
.area{fill:#0969da}
.axis,.edge{stroke:#d0d7de}
.track{fill:#d0d7de}
.ok{fill:#1a7f37}
.fg{fill:#1f2328}
.h0{fill:#eff2f5}.h1{fill:#aceebb}.h2{fill:#4ac26b}.h3{fill:#2da44e}.h4{fill:#116329}
text{font-family:-apple-system,BlinkMacSystemFont,'Segoe UI',Helvetica,Arial,sans-serif}
.mono{font-family:ui-monospace,SFMono-Regular,'SF Mono',Menlo,Consolas,'Liberation Mono',monospace}
.t{font-size:18px;font-weight:600}
.d{font-size:11px}
.v{font-size:16px;font-weight:600}
.big{font-size:24px;font-weight:700}
.l{font-size:11px}
.h{font-size:10px;font-weight:600;letter-spacing:0.08em}
.n{font-size:12px}
.s{font-size:11px}
.c{font-size:12px}
.line{fill:none;stroke-width:2;stroke-linecap:round;stroke-linejoin:round}
.area{fill-opacity:0.14;stroke:none}
.axis{stroke-width:1}
.edge{fill:none;stroke-width:1}
.m0{animation:m0 17.03s linear infinite}
@keyframes m0{0%{transform:translateX(0px)}58.89%,100%{transform:translateX(-1404px)}}
@media (prefers-reduced-motion:reduce){.m0{animation:none}}
</style>
<rect class="bg" x="0.5" y="0.5" width="799" height="93" rx="6"/>
<text class="t" x="25" y="30" text-anchor="start">octocat</text>
<text class="s" x="775" y="30" text-anchor="end">@octocat</text>
<svg x="25" y="46" width="750" height="34">
<g class="m0">
<rect class="track" x="0" y="5" width="75.35" height="24" rx="12"/>
<text class="c mono" x="12" y="21" text-anchor="start">614</text>
<text class="s" x="38.6" y="21" text-anchor="start">stars</text>
<rect class="track" x="85.35" y="5" width="68.15" height="24" rx="12"/>
<text class="c mono" x="97.35" y="21" text-anchor="start">80</text>
<text class="s" x="116.75" y="21" text-anchor="start">forks</text>
<rect class="track" x="163.5" y="5" width="101.25" height="24" rx="12"/>
<text class="c mono" x="175.5" y="21" text-anchor="start">1.2k</text>
<text class="s" x="209.3" y="21" text-anchor="start">followers</text>
<rect class="track" x="274.75" y="5" width="70.9" height="24" rx="12"/>
<text class="c mono" x="286.75" y="21" text-anchor="start">42</text>
<text class="s" x="306.15" y="21" text-anchor="start">repos</text>
<rect class="track" x="355.65" y="5" width="97.95" height="24" rx="12"/>
<text class="c mono" x="367.65" y="21" text-anchor="start">1.7k</text>
<text class="s" x="401.45" y="21" text-anchor="start">contribs</text>
<rect class="track" x="463.6" y="5" width="95.15" height="24" rx="12"/>
<text class="c mono" x="475.6" y="21" text-anchor="start">812</text>
<text class="s" x="502.2" y="21" text-anchor="start">commits</text>
<rect class="track" x="568.75" y="5" width="85.3" height="24" rx="12"/>
<text class="c mono" x="580.75" y="21" text-anchor="start">9.7k</text>
<text class="s" x="614.55" y="21" text-anchor="start">views</text>
<rect class="track" x="664.05" y="5" width="152.4" height="24" rx="12"/>
<circle cx="680.05" cy="17" r="4" fill="#00add8"/>
<text class="n" x="690.05" y="21" text-anchor="start">chronicle-cli</text>
<path class="star" transform="translate(768.85 11) scale(0.7)" d="M8 .25a.75.75 0 0 1 .673.418l1.882 3.815 4.21.612a.75.75 0 0 1 .416 1.279l-3.046 2.97.719 4.192a.75.75 0 0 1-1.088.791L8 12.347l-3.766 1.98a.75.75 0 0 1-1.088-.79l.72-4.194L.818 6.374a.75.75 0 0 1 .416-1.28l4.21-.611L7.327.668A.75.75 0 0 1 8 .25Z"/>
<text class="c mono" x="782.85" y="21" text-anchor="start">240</text>
<rect class="track" x="826.45" y="5" width="151.8" height="24" rx="12"/>
<circle cx="842.45" cy="17" r="4" fill="#3178c6"/>
<text class="n" x="852.45" y="21" text-anchor="start">pixel-garden</text>
<path class="star" transform="translate(930.65 11) scale(0.7)" d="M8 .25a.75.75 0 0 1 .673.418l1.882 3.815 4.21.612a.75.75 0 0 1 .416 1.279l-3.046 2.97.719 4.192a.75.75 0 0 1-1.088.791L8 12.347l-3.766 1.98a.75.75 0 0 1-1.088-.79l.72-4.194L.818 6.374a.75.75 0 0 1 .416-1.28l4.21-.611L7.327.668A.75.75 0 0 1 8 .25Z"/>
<text class="c mono" x="944.65" y="21" text-anchor="start">156</text>
<rect class="track" x="988.25" y="5" width="135" height="24" rx="12"/>
<circle cx="1004.25" cy="17" r="4" fill="#3572a5"/>
<text class="n" x="1014.25" y="21" text-anchor="start">tide-tables</text>
<path class="star" transform="translate(1082.85 11) scale(0.7)" d="M8 .25a.75.75 0 0 1 .673.418l1.882 3.815 4.21.612a.75.75 0 0 1 .416 1.279l-3.046 2.97.719 4.192a.75.75 0 0 1-1.088.791L8 12.347l-3.766 1.98a.75.75 0 0 1-1.088-.79l.72-4.194L.818 6.374a.75.75 0 0 1 .416-1.28l4.21-.611L7.327.668A.75.75 0 0 1 8 .25Z"/>
<text class="c mono" x="1096.85" y="21" text-anchor="start">97</text>
<rect class="track" x="1133.25" y="5" width="135" height="24" rx="12"/>
<circle cx="1149.25" cy="17" r="4" fill="#00add8"/>
<text class="n" x="1159.25" y="21" text-anchor="start">hello-world</text>
<path class="star" transform="translate(1227.85 11) scale(0.7)" d="M8 .25a.75.75 0 0 1 .673.418l1.882 3.815 4.21.612a.75.75 0 0 1 .416 1.279l-3.046 2.97.719 4.192a.75.75 0 0 1-1.088.791L8 12.347l-3.766 1.98a.75.75 0 0 1-1.088-.79l.72-4.194L.818 6.374a.75.75 0 0 1 .416-1.28l4.21-.611L7.327.668A.75.75 0 0 1 8 .25Z"/>
<text class="c mono" x="1241.85" y="21" text-anchor="start">80</text>
<rect class="track" x="1278.25" y="5" width="115.2" height="24" rx="12"/>
<circle cx="1294.25" cy="17" r="4" fill="#89e051"/>
<text class="n" x="1304.25" y="21" text-anchor="start">dotfiles</text>
<path class="star" transform="translate(1353.05 11) scale(0.7)" d="M8 .25a.75.75 0 0 1 .673.418l1.882 3.815 4.21.612a.75.75 0 0 1 .416 1.279l-3.046 2.97.719 4.192a.75.75 0 0 1-1.088.791L8 12.347l-3.766 1.98a.75.75 0 0 1-1.088-.79l.72-4.194L.818 6.374a.75.75 0 0 1 .416-1.28l4.21-.611L7.327.668A.75.75 0 0 1 8 .25Z"/>
<text class="c mono" x="1367.05" y="21" text-anchor="start">41</text>
<rect class="track" x="1404" y="5" width="75.35" height="24" rx="12"/>
<text class="c mono" x="1416" y="21" text-anchor="start">614</text>
<text class="s" x="1442.6" y="21" text-anchor="start">stars</text>
<rect class="track" x="1489.35" y="5" width="68.15" height="24" rx="12"/>
<text class="c mono" x="1501.35" y="21" text-anchor="start">80</text>
<text class="s" x="1520.75" y="21" text-anchor="start">forks</text>
<rect class="track" x="1567.5" y="5" width="101.25" height="24" rx="12"/>
<text class="c mono" x="1579.5" y="21" text-anchor="start">1.2k</text>
<text class="s" x="1613.3" y="21" text-anchor="start">followers</text>
<rect class="track" x="1678.75" y="5" width="70.9" height="24" rx="12"/>
<text class="c mono" x="1690.75" y="21" text-anchor="start">42</text>
<text class="s" x="1710.15" y="21" text-anchor="start">repos</text>
<rect class="track" x="1759.65" y="5" width="97.95" height="24" rx="12"/>
<text class="c mono" x="1771.65" y="21" text-anchor="start">1.7k</text>
<text class="s" x="1805.45" y="21" text-anchor="start">contribs</text>
<rect class="track" x="1867.6" y="5" width="95.15" height="24" rx="12"/>
<text class="c mono" x="1879.6" y="21" text-anchor="start">812</text>
<text class="s" x="1906.2" y="21" text-anchor="start">commits</text>
<rect class="track" x="1972.75" y="5" width="85.3" height="24" rx="12"/>
<text class="c mono" x="1984.75" y="21" text-anchor="start">9.7k</text>
<text class="s" x="2018.55" y="21" text-anchor="start">views</text>
<rect class="track" x="2068.05" y="5" width="152.4" height="24" rx="12"/>
<circle cx="2084.05" cy="17" r="4" fill="#00add8"/>
<text class="n" x="2094.05" y="21" text-anchor="start">chronicle-cli</text>
<path class="star" transform="translate(2172.85 11) scale(0.7)" d="M8 .25a.75.75 0 0 1 .673.418l1.882 3.815 4.21.612a.75.75 0 0 1 .416 1.279l-3.046 2.97.719 4.192a.75.75 0 0 1-1.088.791L8 12.347l-3.766 1.98a.75.75 0 0 1-1.088-.79l.72-4.194L.818 6.374a.75.75 0 0 1 .416-1.28l4.21-.611L7.327.668A.75.75 0 0 1 8 .25Z"/>
<text class="c mono" x="2186.85" y="21" text-anchor="start">240</text>
<rect class="track" x="2230.45" y="5" width="151.8" height="24" rx="12"/>
<circle cx="2246.45" cy="17" r="4" fill="#3178c6"/>
<text class="n" x="2256.45" y="21" text-anchor="start">pixel-garden</text>
<path class="star" transform="translate(2334.65 11) scale(0.7)" d="M8 .25a.75.75 0 0 1 .673.418l1.882 3.815 4.21.612a.75.75 0 0 1 .416 1.279l-3.046 2.97.719 4.192a.75.75 0 0 1-1.088.791L8 12.347l-3.766 1.98a.75.75 0 0 1-1.088-.79l.72-4.194L.818 6.374a.75.75 0 0 1 .416-1.28l4.21-.611L7.327.668A.75.75 0 0 1 8 .25Z"/>
<text class="c mono" x="2348.65" y="21" text-anchor="start">156</text>
<rect class="track" x="2392.25" y="5" width="135" height="24" rx="12"/>
<circle cx="2408.25" cy="17" r="4" fill="#3572a5"/>
<text class="n" x="2418.25" y="21" text-anchor="start">tide-tables</text>
<path class="star" transform="translate(2486.85 11) scale(0.7)" d="M8 .25a.75.75 0 0 1 .673.418l1.882 3.815 4.21.612a.75.75 0 0 1 .416 1.279l-3.046 2.97.719 4.192a.75.75 0 0 1-1.088.791L8 12.347l-3.766 1.98a.75.75 0 0 1-1.088-.79l.72-4.194L.818 6.374a.75.75 0 0 1 .416-1.28l4.21-.611L7.327.668A.75.75 0 0 1 8 .25Z"/>
<text class="c mono" x="2500.85" y="21" text-anchor="start">97</text>
<rect class="track" x="2537.25" y="5" width="135" height="24" rx="12"/>
<circle cx="2553.25" cy="17" r="4" fill="#00add8"/>
<text class="n" x="2563.25" y="21" text-anchor="start">hello-world</text>
<path class="star" transform="translate(2631.85 11) scale(0.7)" d="M8 .25a.75.75 0 0 1 .673.418l1.882 3.815 4.21.612a.75.75 0 0 1 .416 1.279l-3.046 2.97.719 4.192a.75.75 0 0 1-1.088.791L8 12.347l-3.766 1.98a.75.75 0 0 1-1.088-.79l.72-4.194L.818 6.374a.75.75 0 0 1 .416-1.28l4.21-.611L7.327.668A.75.75 0 0 1 8 .25Z"/>
<text class="c mono" x="2645.85" y="21" text-anchor="start">80</text>
<rect class="track" x="2682.25" y="5" width="115.2" height="24" rx="12"/>
<circle cx="2698.25" cy="17" r="4" fill="#89e051"/>
<text class="n" x="2708.25" y="21" text-anchor="start">dotfiles</text>
<path class="star" transform="translate(2757.05 11) scale(0.7)" d="M8 .25a.75.75 0 0 1 .673.418l1.882 3.815 4.21.612a.75.75 0 0 1 .416 1.279l-3.046 2.97.719 4.192a.75.75 0 0 1-1.088.791L8 12.347l-3.766 1.98a.75.75 0 0 1-1.088-.79l.72-4.194L.818 6.374a.75.75 0 0 1 .416-1.28l4.21-.611L7.327.668A.75.75 0 0 1 8 .25Z"/>
<text class="c mono" x="2771.05" y="21" text-anchor="start">41</text>
</g>
</svg>
</svg>
