<svg xmlns="http://www.w3.org/2000/svg" width="495" height="266" viewBox="0 0 495 266" role="img" aria-labelledby="ghcTitle ghcDesc">
<title id="ghcTitle">Languages</title>
<desc id="ghcDesc">GitHub summary for octocat: 614 stars, 42 public repositories. Languages by bytes: Go 73%, TypeScript 18%, Shell 5%, CSS 3%, Dockerfile 1%, Makefile 1%.</desc>
<style>
.bg{fill:#0d1117;stroke:#3d444d}
.panel{fill:#151b23}
.t,.v,.big{fill:#f0f6fc}
.d,.l,.h,.s{fill:#9198a1}
.n,.c{fill:#f0f6fc}
.star,.pill-v{fill:#4493f8}
.on-accent{fill:#0d1117}
.line{stroke:#4493f8}
.area{fill:#4493f8}
.axis,.edge{stroke:#3d444d}
.track{fill:#3d444d}
.ok{fill:#3fb950}
.fg{fill:#f0f6fc}
.h0{fill:#151b23}.h1{fill:#033a16}.h2{fill:#196c2e}.h3{fill:#2ea043}.h4{fill:#56d364}
text{font-family:-apple-system,BlinkMacSystemFont,'Segoe UI','Noto Sans',Helvetica,Arial,sans-serif}
.mono{font-family:ui-monospace,SFMono-Regular,'SF Mono',Menlo,Consolas,'Liberation Mono',monospace}
.t{font-size:15px;font-weight:600}
.d{font-size:11px}
.v{font-size:22px;font-weight:600;font-family:ui-monospace,SFMono-Regular,'SF Mono',Menlo,Consolas,'Liberation Mono',monospace}
.big{font-size:20px;font-weight:600;font-family:ui-monospace,SFMono-Regular,'SF Mono',Menlo,Consolas,'Liberation Mono',monospace}
.l{font-size:11px}
.h{font-size:14px;font-weight:600}
.n{font-size:13px}
.s{font-size:11px}
.c{font-size:13px;font-weight:500;font-family:ui-monospace,SFMono-Regular,'SF Mono',Menlo,Consolas,'Liberation Mono',monospace}
.line{fill:none;stroke-width:2;stroke-linecap:round;stroke-linejoin:round}
.area{fill-opacity:0.12;stroke:none}
.axis{stroke-width:1}
.edge{fill:none;stroke-width:1}
.m0{animation:m0 8.88s linear infinite}
@keyframes m0{0%{stroke-dasharray:1;stroke-dashoffset:1}11.46%,100%{stroke-dasharray:1;stroke-dashoffset:0}}
.m1{animation:m1 8.88s linear infinite}
@keyframes m1{0%,11.46%{stroke-dasharray:1;stroke-dashoffset:1}14.24%,100%{stroke-dasharray:1;stroke-dashoffset:0}}
.m2{animation:m2 8.88s linear infinite}
@keyframes m2{0%,14.24%{stroke-dasharray:1;stroke-dashoffset:1}14.95%,100%{stroke-dasharray:1;stroke-dashoffset:0}}
.m3{animation:m3 8.88s linear infinite}
@keyframes m3{0%,14.95%{stroke-dasharray:1;stroke-dashoffset:1}15.52%,100%{stroke-dasharray:1;stroke-dashoffset:0}}
.m4{animation:m4 8.88s linear infinite}
@keyframes m4{0%,15.52%{stroke-dasharray:1;stroke-dashoffset:1}16.08%,100%{stroke-dasharray:1;stroke-dashoffset:0}}
.m5{animation:m5 8.88s linear infinite}
@keyframes m5{0%,16.08%{stroke-dasharray:1;stroke-dashoffset:1}16.64%,100%{stroke-dasharray:1;stroke-dashoffset:0}}
.m6{animation:m6 8.88s ease-out infinite}
@keyframes m6{0%,16.64%{opacity:0}21.15%,100%{opacity:1}}
@media (prefers-reduced-motion:reduce){.m0,.m1,.m2,.m3,.m4,.m5,.m6{animation:none}}
</style>
<rect class="bg" x="0.5" y="0.5" width="494" height="265" rx="6"/>
<path class="panel" d="M0.5,44 V6.5 A6,6 0 0 1 6.5,0.5 H488.5 A6,6 0 0 1 494.5,6.5 V44 Z"/>
<line class="axis" x1="0.5" y1="44.5" x2="494.5" y2="44.5"/>
<rect class="edge" x="0.5" y="0.5" width="494" height="265" rx="6"/>
<text class="t" x="22" y="28" text-anchor="start">Languages</text>
<text class="d mono" x="473" y="28" text-anchor="end">@octocat</text>
<circle class="edge" cx="84" cy="124" r="54" stroke-width="16"/>
<path class="m0" pathLength="1" d="M84,70 A54,54 0 1 1 31.08,134.74" fill="none" stroke="#00add8" stroke-width="16"/>
<path class="m1" pathLength="1" d="M30.56,131.79 A54,54 0 0 1 50.66,81.52" fill="none" stroke="#3178c6" stroke-width="16"/>
<path class="m2" pathLength="1" d="M53.07,79.74 A54,54 0 0 1 63.91,73.88" fill="none" stroke="#89e051" stroke-width="16"/>
<path class="m3" pathLength="1" d="M66.73,72.84 A54,54 0 0 1 72.15,71.32" fill="none" stroke="#563d7c" stroke-width="16"/>
<path class="m4" pathLength="1" d="M75.1,70.74 A54,54 0 0 1 80.06,70.14" fill="none" stroke="#384d54" stroke-width="16"/>
<path class="m5" pathLength="1" d="M80.06,70.14 A54,54 0 0 1 84,70" fill="none" stroke="#427819" stroke-width="16"/>
<text class="big t" x="84" y="128" text-anchor="middle">73%</text>
<text class="s" x="84" y="144" text-anchor="middle">Go</text>
<circle class="m6" cx="175" cy="72" r="5" fill="#00add8"/>
<text class="n m6" x="186" y="76" text-anchor="start">Go</text>
<text class="c m6" x="473" y="76" text-anchor="end">73%</text>
<circle class="m6" cx="175" cy="94" r="5" fill="#3178c6"/>
<text class="n m6" x="186" y="98" text-anchor="start">TypeScript</text>
<text class="c m6" x="473" y="98" text-anchor="end">18%</text>
<circle class="m6" cx="175" cy="116" r="5" fill="#89e051"/>
<text class="n m6" x="186" y="120" text-anchor="start">Shell</text>
<text class="c m6" x="473" y="120" text-anchor="end">5%</text>
<circle class="m6" cx="175" cy="138" r="5" fill="#563d7c"/>
<text class="n m6" x="186" y="142" text-anchor="start">CSS</text>
<text class="c m6" x="473" y="142" text-anchor="end">3%</text>
<circle class="m6" cx="175" cy="160" r="5" fill="#384d54"/>
<text class="n m6" x="186" y="164" text-anchor="start">Dockerfile</text>
<text class="c m6" x="473" y="164" text-anchor="end">1%</text>
<circle class="m6" cx="175" cy="182" r="5" fill="#427819"/>
<text class="n m6" x="186" y="186" text-anchor="start">Makefile</text>
<text class="c m6" x="473" y="186" text-anchor="end">1%</text>
<line class="axis" x1="22" y1="198.5" x2="473" y2="198.5"/>
<text class="big" x="22" y="232" text-anchor="start">614</text>
<text class="l" x="22" y="248" text-anchor="start">Stars</text>
<text class="big" x="247.5" y="232" text-anchor="start">42</text>
<text class="l" x="247.5" y="248" text-anchor="start">Repositories</text>
</svg>
